<svg xmlns="http://www.w3.org/2000/svg" viewBox="0 0 120 120" fill="none">
  <defs>
    <linearGradient id="bg" x1="10" y1="10" x2="110" y2="116" gradientUnits="userSpaceOnUse">
      <stop stop-color="#0F766E"/>
      <stop offset="1" stop-color="#2563EB"/>
    </linearGradient>
  </defs>
  <rect width="120" height="120" rx="28" fill="url(#bg)"/>
  <ellipse cx="60" cy="122" rx="40" ry="28" fill="#0F172A" fill-opacity="0.35"/>
  <path d="M31 108c5-17 17-27 29-27s24 10 29 27" fill="#F9A8D4"/>
  <rect x="45" y="80" width="30" height="14" rx="7" fill="#F6C69A"/>
  <ellipse cx="60" cy="57" rx="23" ry="25" fill="#F6C69A"/>
  <path d="M36 56c1-20 12-31 24-31 12 0 23 11 24 31-4-8-12-13-24-13-12 0-20 5-24 13z" fill="#0F172A"/>
  <path d="M34 56c4-15 14-24 26-24 11 0 21 7 25 21" stroke="#0F172A" stroke-width="3" stroke-linecap="round"/>
  <circle cx="51" cy="58" r="2.2" fill="#111827"/>
  <circle cx="69" cy="58" r="2.2" fill="#111827"/>
  <path d="M54 68c2 3 10 3 12 0" stroke="#A16207" stroke-width="2" stroke-linecap="round"/>
  <path d="M35 108c4-13 14-22 25-22 12 0 21 8 25 22" fill="#7C3AED"/>
</svg>
