<svg xmlns="http://www.w3.org/2000/svg" viewBox="0 0 120 120" fill="none">
  <defs>
    <linearGradient id="bg" x1="12" y1="10" x2="108" y2="114" gradientUnits="userSpaceOnUse">
      <stop stop-color="#14B8A6"/>
      <stop offset="1" stop-color="#0EA5E9"/>
    </linearGradient>
  </defs>
  <rect width="120" height="120" rx="28" fill="url(#bg)"/>
  <ellipse cx="60" cy="122" rx="40" ry="28" fill="#0F172A" fill-opacity="0.35"/>
  <path d="M30 108c5-18 18-28 30-28s25 10 30 28" fill="#DDD6FE"/>
  <rect x="45" y="80" width="30" height="14" rx="7" fill="#F4C49A"/>
  <ellipse cx="60" cy="57" rx="23" ry="25" fill="#F4C49A"/>
  <path d="M35 58c1-20 11-32 25-32 14 0 24 12 25 32-5-9-13-14-25-14-12 0-20 5-25 14z" fill="#111827"/>
  <path d="M38 61c0 12 10 21 22 21" stroke="#111827" stroke-width="3" stroke-linecap="round"/>
  <circle cx="52" cy="58" r="2.2" fill="#111827"/>
  <circle cx="69" cy="58" r="2.2" fill="#111827"/>
  <path d="M54 69c2 2 10 2 12 0" stroke="#9A3412" stroke-width="2" stroke-linecap="round"/>
  <path d="M34 108c4-13 14-22 26-22 12 0 22 9 26 22" fill="#6D28D9"/>
</svg>
