<svg xmlns="http://www.w3.org/2000/svg" viewBox="0 0 120 120" fill="none">
  <defs>
    <linearGradient id="bg" x1="8" y1="8" x2="112" y2="114" gradientUnits="userSpaceOnUse">
      <stop stop-color="#22C55E"/>
      <stop offset="1" stop-color="#0891B2"/>
    </linearGradient>
  </defs>
  <rect width="120" height="120" rx="28" fill="url(#bg)"/>
  <ellipse cx="60" cy="122" rx="40" ry="28" fill="#0F172A" fill-opacity="0.35"/>
  <path d="M30 108c5-18 18-28 30-28s25 10 30 28" fill="#BFDBFE"/>
  <rect x="46" y="80" width="28" height="14" rx="7" fill="#EABF95"/>
  <ellipse cx="60" cy="57" rx="22" ry="24" fill="#EABF95"/>
  <path d="M37 56c1-18 10-30 23-30s22 12 23 30c-4-6-10-10-23-10s-19 4-23 10z" fill="#0F172A"/>
  <path d="M43 44c3-5 10-8 17-8 7 0 13 3 17 8" stroke="#111827" stroke-width="3" stroke-linecap="round"/>
  <circle cx="52" cy="58" r="2.2" fill="#111827"/>
  <circle cx="68" cy="58" r="2.2" fill="#111827"/>
  <path d="M55 68c2 2 8 2 10 0" stroke="#7C2D12" stroke-width="2" stroke-linecap="round"/>
  <path d="M34 108c4-13 14-22 26-22 12 0 22 9 26 22" fill="#0369A1"/>
</svg>
