<svg xmlns="http://www.w3.org/2000/svg" viewBox="0 0 120 120" fill="none">
  <defs>
    <linearGradient id="bg" x1="10" y1="8" x2="110" y2="116" gradientUnits="userSpaceOnUse">
      <stop stop-color="#1D4ED8"/>
      <stop offset="1" stop-color="#14B8A6"/>
    </linearGradient>
  </defs>
  <rect width="120" height="120" rx="28" fill="url(#bg)"/>
  <ellipse cx="60" cy="122" rx="40" ry="28" fill="#0F172A" fill-opacity="0.35"/>
  <path d="M32 108c4-18 18-28 28-28s24 10 28 28" fill="#FCA5A5"/>
  <rect x="44" y="80" width="32" height="14" rx="7" fill="#FED7AA"/>
  <ellipse cx="60" cy="58" rx="23" ry="25" fill="#FED7AA"/>
  <path d="M38 56c0-18 10-30 22-30s22 11 22 28v4c-4-6-10-10-22-10-10 0-16 3-22 8v0z" fill="#111827"/>
  <circle cx="51" cy="58" r="2.4" fill="#1F2937"/>
  <circle cx="69" cy="58" r="2.4" fill="#1F2937"/>
  <path d="M54 68c2 2.5 10 2.5 12 0" stroke="#9A3412" stroke-width="2" stroke-linecap="round"/>
  <path d="M43 55c3-4 8-6 13-5" stroke="#1F2937" stroke-width="2" stroke-linecap="round"/>
  <path d="M64 50c5-1 10 1 13 5" stroke="#1F2937" stroke-width="2" stroke-linecap="round"/>
  <path d="M36 108c2-14 12-24 24-24 14 0 24 10 26 24" fill="#BE123C"/>
</svg>
